<svg xmlns="http://www.w3.org/2000/svg" viewBox="59 60 481 452"><title>Shinro Linux — kanji 軌</title><path d="M110.0,125.0L109.0,155.0L111.0,157.0L183.0,157.0L186.0,160.0L185.0,180.0L182.0,183.0L118.0,183.0L116.0,185.0L115.0,219.0L113.0,221.0L112.0,260.0L110.0,262.0L108.0,323.0L106.0,325.0L106.0,335.0L108.0,337.0L147.0,337.0L168.0,306.0L146.0,305.0L143.0,302.0L143.0,284.0L145.0,276.0L147.0,274.0L176.0,274.0L179.0,277.0L179.0,291.0L192.0,276.0L192.0,274.0L200.0,265.0L200.0,263.0L216.0,246.0L217.0,217.0L221.0,213.0L252.0,214.0L255.0,217.0L231.0,240.0L231.0,242.0L215.0,259.0L215.0,261.0L201.0,277.0L201.0,279.0L193.0,288.0L193.0,290.0L189.0,293.0L189.0,295.0L159.0,336.0L171.0,337.0L173.0,339.0L172.0,362.0L169.0,365.0L87.0,366.0L84.0,397.0L86.0,399.0L166.0,399.0L168.0,401.0L168.0,423.0L166.0,426.0L164.0,472.0L165.0,485.0L202.0,484.0L203.0,448.0L205.0,445.0L206.0,401.0L208.0,399.0L287.0,399.0L289.0,396.0L289.0,365.0L286.0,365.0L284.0,363.0L281.0,365.0L275.0,365.0L272.0,363.0L245.0,363.0L243.0,365.0L212.0,365.0L209.0,362.0L210.0,344.0L214.0,337.0L277.0,337.0L279.0,335.0L280.0,295.0L282.0,293.0L283.0,249.0L281.0,247.0L278.0,251.0L275.0,252.0L248.0,279.0L245.0,285.0L245.0,302.0L242.0,305.0L219.0,305.0L216.0,302.0L216.0,300.0L234.0,280.0L234.0,278.0L263.0,249.0L265.0,249.0L287.0,231.0L291.0,230.0L297.0,225.0L311.0,218.0L319.0,216.0L328.0,211.0L360.0,203.0L364.0,203.0L366.0,206.0L362.0,210.0L346.0,218.0L341.0,223.0L340.0,266.0L338.0,268.0L336.0,302.0L334.0,304.0L330.0,329.0L327.0,335.0L322.0,355.0L316.0,366.0L315.0,372.0L298.0,404.0L284.0,422.0L284.0,424.0L269.0,441.0L250.0,459.0L250.0,461.0L278.0,488.0L280.0,488.0L311.0,456.0L311.0,454.0L328.0,432.0L328.0,430.0L342.0,408.0L342.0,405.0L356.0,376.0L357.0,369.0L361.0,357.0L363.0,355.0L365.0,342.0L367.0,340.0L368.0,329.0L370.0,327.0L372.0,308.0L374.0,306.0L375.0,287.0L377.0,285.0L379.0,254.0L379.0,205.0L382.0,202.0L413.0,202.0L415.0,204.0L413.0,348.0L411.0,350.0L410.0,397.0L411.0,447.0L413.0,449.0L415.0,457.0L425.0,470.0L438.0,477.0L449.0,478.0L451.0,480.0L466.0,480.0L468.0,478.0L481.0,476.0L491.0,470.0L498.0,463.0L505.0,452.0L509.0,434.0L511.0,432.0L512.0,411.0L514.0,409.0L515.0,376.0L512.0,373.0L483.0,359.0L481.0,361.0L480.0,402.0L478.0,404.0L476.0,424.0L473.0,430.0L467.0,436.0L464.0,437.0L456.0,436.0L449.0,427.0L449.0,363.0L451.0,361.0L452.0,263.0L454.0,261.0L455.0,167.0L453.0,165.0L384.0,165.0L381.0,162.0L382.0,93.0L384.0,91.0L384.0,86.0L382.0,84.0L347.0,84.0L345.0,86.0L343.0,162.0L340.0,165.0L308.0,165.0L306.0,167.0L305.0,186.0L289.0,196.0L286.0,193.0L287.0,184.0L285.0,183.0L223.0,183.0L220.0,181.0L221.0,160.0L224.0,157.0L298.0,157.0L300.0,155.0L300.0,125.0L298.0,123.0L227.0,123.0L224.0,120.0L224.0,95.0L226.0,93.0L226.0,86.0L224.0,84.0L190.0,84.0L189.0,110.0L187.0,113.0L187.0,121.0L185.0,123.0L112.0,123.0ZM147.0,217.0L150.0,214.0L180.0,214.0L183.0,217.0L182.0,242.0L179.0,245.0L149.0,245.0L146.0,242.0Z" fill="#ffffff" fill-rule="evenodd"/></svg>
